<svg width="26" height="28" viewBox="0 0 26 28" fill="none" xmlns="http://www.w3.org/2000/svg">
<path fill-rule="evenodd" clip-rule="evenodd" d="M12.8803 1.87492C12.8166 1.85503 12.7481 1.85503 12.6844 1.87492L2.145 5.19491C2.08048 5.21388 2.02379 5.25214 1.98305 5.30422C1.9423 5.35631 1.91958 5.41955 1.91812 5.48491V11.7449C1.91812 18.5049 6.11531 23.4949 12.6947 25.9049C12.7513 25.9248 12.8134 25.9248 12.87 25.9049C19.4494 23.4949 23.6466 18.5049 23.6466 11.7449V5.48491C23.6451 5.41955 23.6224 5.35631 23.5816 5.30422C23.5409 5.25214 23.4842 5.21388 23.4197 5.19491L12.8803 1.87492ZM12.0966 0.104915C12.5424 -0.0349716 13.0223 -0.0349716 13.4681 0.104915L24.0075 3.42491C24.4564 3.56623 24.8478 3.84156 25.1256 4.21155C25.4034 4.58154 25.5535 5.02723 25.5544 5.48491V11.7449C25.5544 19.4149 20.7384 25.0049 13.5403 27.6449C13.0431 27.8149 12.5009 27.8149 12.0037 27.6449C4.82625 24.9749 0 19.3849 0 11.7449V5.48491C0.000865217 5.02723 0.150941 4.58154 0.428769 4.21155C0.706597 3.84156 1.09795 3.56623 1.54687 3.42491L12.0966 0.104915ZM14.0559 13.8549C14.4397 13.6412 14.7595 13.3343 14.9838 12.9643C15.208 12.5943 15.3289 12.174 15.3347 11.7449C15.3569 11.4067 15.3073 11.0676 15.1891 10.7486C15.0709 10.4297 14.8865 10.1376 14.6473 9.89045C14.4081 9.6433 14.1192 9.44631 13.7984 9.31165C13.4777 9.17699 13.1319 9.10751 12.7823 9.10751C12.4328 9.10751 12.087 9.17699 11.7662 9.31165C11.4455 9.44631 11.1566 9.6433 10.9174 9.89045C10.6782 10.1376 10.4938 10.4297 10.3756 10.7486C10.2574 11.0676 10.2078 11.4067 10.23 11.7449C10.2304 12.1791 10.3488 12.6056 10.5733 12.9813C10.7978 13.357 11.1204 13.6687 11.5087 13.8849V17.3149C11.4928 17.4864 11.5139 17.6593 11.5707 17.8225C11.6274 17.9857 11.7186 18.1356 11.8384 18.2627C11.9583 18.3898 12.1041 18.4914 12.2666 18.5608C12.4291 18.6303 12.6047 18.6662 12.7823 18.6662C12.9599 18.6662 13.1356 18.6303 13.2981 18.5608C13.4606 18.4914 13.6064 18.3898 13.7262 18.2627C13.8461 18.1356 13.9373 17.9857 13.994 17.8225C14.0508 17.6593 14.0719 17.4864 14.0559 17.3149V13.8549Z" fill="#06919A"/>
</svg>
