<svg width="20" height="19" viewBox="0 0 20 19" fill="none" xmlns="http://www.w3.org/2000/svg">
<path d="M18.1625 16.4092L17.9642 16.2342C17.4015 15.7328 16.909 15.1579 16.5 14.525C16.0533 13.6515 15.7856 12.6975 15.7125 11.7192V8.83749C15.7101 8.48746 15.6789 8.13822 15.6192 7.79332C14.6311 7.59022 13.7435 7.05191 13.1068 6.26952C12.47 5.48713 12.1232 4.50874 12.125 3.49998V3.13248C11.516 2.83276 10.8616 2.63567 10.1883 2.54915V1.81415C10.1883 1.60761 10.1063 1.40954 9.96025 1.26349C9.81421 1.11745 9.61613 1.0354 9.40959 1.0354C9.20305 1.0354 9.00498 1.11745 8.85893 1.26349C8.71289 1.40954 8.63084 1.60761 8.63084 1.81415V2.57832C7.12334 2.79097 5.74368 3.54183 4.74655 4.69228C3.74943 5.84272 3.20218 7.31507 3.20584 8.83749V11.7192C3.13278 12.6975 2.86505 13.6515 2.41834 14.525C2.01636 15.1564 1.53179 15.7312 0.977508 16.2342L0.779175 16.4092V18.0542H18.1625V16.4092Z" fill="#1BC0CB"/>
<circle cx="16.5" cy="3.5" r="3.5" fill="#EE7272"/>
</svg>
