<svg width="40" height="25" viewBox="0 0 40 25" fill="none" xmlns="http://www.w3.org/2000/svg">
<path d="M17.2727 9.02778H15.4545V7.63889C15.4545 7.27053 15.263 6.91726 14.922 6.6568C14.581 6.39633 14.1186 6.25 13.6364 6.25C13.1542 6.25 12.6917 6.39633 12.3507 6.6568C12.0097 6.91726 11.8182 7.27053 11.8182 7.63889V9.02778H10C9.51779 9.02778 9.05533 9.17411 8.71435 9.43457C8.37338 9.69504 8.18182 10.0483 8.18182 10.4167C8.18182 10.785 8.37338 11.1383 8.71435 11.3988C9.05533 11.6592 9.51779 11.8056 10 11.8056H11.8182V13.1944C11.8182 13.5628 12.0097 13.9161 12.3507 14.1765C12.6917 14.437 13.1542 14.5833 13.6364 14.5833C14.1186 14.5833 14.581 14.437 14.922 14.1765C15.263 13.9161 15.4545 13.5628 15.4545 13.1944V11.8056H17.2727C17.7549 11.8056 18.2174 11.6592 18.5584 11.3988C18.8994 11.1383 19.0909 10.785 19.0909 10.4167C19.0909 10.0483 18.8994 9.69504 18.5584 9.43457C18.2174 9.17411 17.7549 9.02778 17.2727 9.02778ZM39.8727 12.0139L39.7636 11.8611C39.7323 11.7924 39.6895 11.727 39.6364 11.6667L35.2727 7.22222C34.7647 6.70474 34.1058 6.28472 33.3484 5.99544C32.591 5.70616 31.7559 5.55556 30.9091 5.55556H27.2727V4.16667C27.2727 3.0616 26.6981 2.00179 25.6751 1.22039C24.6522 0.438987 23.2648 0 21.8182 0H5.45455C4.00791 0 2.62053 0.438987 1.5976 1.22039C0.574674 2.00179 0 3.0616 0 4.16667V19.4444C0 19.8128 0.191558 20.1661 0.532533 20.4265C0.873508 20.687 1.33597 20.8333 1.81818 20.8333H3.63636C3.63636 21.9384 4.21104 22.9982 5.23396 23.7796C6.25689 24.561 7.64427 25 9.09091 25C10.5375 25 11.9249 24.561 12.9479 23.7796C13.9708 22.9982 14.5455 21.9384 14.5455 20.8333H25.4545C25.4545 21.9384 26.0292 22.9982 27.0521 23.7796C28.0751 24.561 29.4625 25 30.9091 25C32.3557 25 33.7431 24.561 34.766 23.7796C35.789 22.9982 36.3636 21.9384 36.3636 20.8333H38.1818C38.664 20.8333 39.1265 20.687 39.4675 20.4265C39.8084 20.1661 40 19.8128 40 19.4444V12.5C39.9961 12.3334 39.953 12.1688 39.8727 12.0139ZM9.09091 22.2222C8.73131 22.2222 8.37978 22.1408 8.08078 21.9882C7.78178 21.8355 7.54874 21.6186 7.41113 21.3648C7.27351 21.111 7.23751 20.8318 7.30766 20.5624C7.37782 20.293 7.55098 20.0455 7.80526 19.8512C8.05954 19.657 8.38351 19.5247 8.7362 19.4711C9.08889 19.4175 9.45447 19.445 9.7867 19.5502C10.1189 19.6553 10.4029 19.8333 10.6027 20.0617C10.8025 20.2901 10.9091 20.5586 10.9091 20.8333C10.9091 21.2017 10.7175 21.555 10.3766 21.8154C10.0356 22.0759 9.57312 22.2222 9.09091 22.2222ZM23.6364 18.0556H13.1273C12.616 17.6259 11.9929 17.2826 11.2978 17.0477C10.6027 16.8128 9.851 16.6914 9.09091 16.6914C8.33082 16.6914 7.57913 16.8128 6.88403 17.0477C6.18894 17.2826 5.56578 17.6259 5.05455 18.0556H3.63636V4.16667C3.63636 3.79831 3.82792 3.44504 4.1689 3.18457C4.50987 2.92411 4.97233 2.77778 5.45455 2.77778H21.8182C22.3004 2.77778 22.7629 2.92411 23.1038 3.18457C23.4448 3.44504 23.6364 3.79831 23.6364 4.16667V18.0556ZM27.2727 8.33333H30.9091C31.1914 8.33333 31.4697 8.38353 31.7222 8.47996C31.9747 8.57639 32.1943 8.71639 32.3636 8.88889L34.5455 11.1111H27.2727V8.33333ZM30.9091 22.2222C30.5495 22.2222 30.198 22.1408 29.899 21.9882C29.6 21.8355 29.3669 21.6186 29.2293 21.3648C29.0917 21.111 29.0557 20.8318 29.1258 20.5624C29.196 20.293 29.3692 20.0455 29.6234 19.8512C29.8777 19.657 30.2017 19.5247 30.5544 19.4711C30.9071 19.4175 31.2726 19.445 31.6049 19.5502C31.9371 19.6553 32.2211 19.8333 32.4209 20.0617C32.6206 20.2901 32.7273 20.5586 32.7273 20.8333C32.7273 21.2017 32.5357 21.555 32.1947 21.8154C31.8538 22.0759 31.3913 22.2222 30.9091 22.2222ZM36.3636 18.0556H34.9455C33.978 17.2417 32.6286 16.753 31.1915 16.6957C29.7543 16.6385 28.3458 17.0174 27.2727 17.75V13.8889H36.3636V18.0556Z" fill="#007981"/>
</svg>
