<svg width="38" height="22" viewBox="0 0 38 22" fill="none" xmlns="http://www.w3.org/2000/svg">
<path d="M28.9578 7.65625L28.5977 7.55125L25.5474 2.89625C24.9745 2.02145 24.1202 1.28986 23.0759 0.779711C22.0317 0.269564 20.8367 5.28505e-05 19.6187 4.55666e-09H11.9379C10.5274 -4.68477e-05 9.15269 0.361214 8.00854 1.03259C6.86438 1.70396 6.00883 2.6514 5.56312 3.74063L4.10919 7.29094C2.89109 7.70884 1.8515 8.40992 1.12057 9.30641C0.389647 10.2029 -0.000144201 11.255 4.00177e-08 12.3309V14.7656C4.00177e-08 16.3188 1.13681 17.6531 2.76812 18.2547C2.97938 19.2399 3.59895 20.1364 4.52363 20.795C5.44831 21.4536 6.62229 21.8344 7.85001 21.874C9.07773 21.9137 10.2851 21.6098 11.271 21.0129C12.2568 20.416 12.9617 19.5622 13.2682 18.5938H24.3568C24.6633 19.5622 25.3682 20.416 26.354 21.0129C27.3399 21.6098 28.5473 21.9137 29.775 21.874C31.0027 21.8344 32.1767 21.4536 33.1014 20.795C34.0261 20.1364 34.6456 19.2399 34.8569 18.2547C35.6818 17.9516 36.3818 17.4612 36.8728 16.8423C37.3638 16.2234 37.625 15.5023 37.625 14.7656V14.0241C37.6248 12.8951 37.1954 11.7939 36.3956 10.8716C35.5959 9.94922 34.4651 9.25091 33.1584 8.8725L29.1003 7.69781V7.65625H28.9578ZM11.9379 2.1875H14.7812V7.65625H6.79131L8.11088 4.43188C8.37842 3.77805 8.89207 3.20939 9.57899 2.80654C10.2659 2.40369 11.0912 2.1871 11.9379 2.1875ZM17.4688 2.1875H19.6187C20.3496 2.18729 21.0667 2.34879 21.6935 2.65473C22.3202 2.96066 22.833 3.39953 23.177 3.92438L25.6226 7.65625H17.4688V2.1875ZM28.4956 9.84375L32.2581 10.9331C33.042 11.1602 33.7204 11.5793 34.2001 12.1327C34.6798 12.6861 34.9374 13.3468 34.9375 14.0241V14.7656C34.9375 15.1484 34.7762 15.5006 34.5075 15.7806C34.0673 14.9396 33.3144 14.2319 32.3547 13.757C31.395 13.2821 30.2767 13.0639 29.1567 13.1329C28.0368 13.2019 26.9716 13.5548 26.1107 14.1419C25.2498 14.729 24.6364 15.5209 24.3568 16.4062H13.2682C12.9886 15.5209 12.3752 14.729 11.5143 14.1419C10.6534 13.5548 9.58819 13.2019 8.46826 13.1329C7.34833 13.0639 6.22997 13.2821 5.27026 13.757C4.31055 14.2319 3.55772 14.9396 3.1175 15.7806C2.8378 15.4914 2.68629 15.1337 2.6875 14.7656V12.3309C2.6875 11.3466 3.225 10.4497 4.085 9.84375H28.4956ZM5.375 17.5C5.375 16.9198 5.65815 16.3634 6.16215 15.9532C6.66615 15.543 7.34973 15.3125 8.0625 15.3125C8.77527 15.3125 9.45885 15.543 9.96285 15.9532C10.4669 16.3634 10.75 16.9198 10.75 17.5C10.75 18.0802 10.4669 18.6366 9.96285 19.0468C9.45885 19.457 8.77527 19.6875 8.0625 19.6875C7.34973 19.6875 6.66615 19.457 6.16215 19.0468C5.65815 18.6366 5.375 18.0802 5.375 17.5ZM29.5625 15.3125C30.2753 15.3125 30.9588 15.543 31.4628 15.9532C31.9669 16.3634 32.25 16.9198 32.25 17.5C32.25 18.0802 31.9669 18.6366 31.4628 19.0468C30.9588 19.457 30.2753 19.6875 29.5625 19.6875C28.8497 19.6875 28.1662 19.457 27.6622 19.0468C27.1581 18.6366 26.875 18.0802 26.875 17.5C26.875 16.9198 27.1581 16.3634 27.6622 15.9532C28.1662 15.543 28.8497 15.3125 29.5625 15.3125Z" fill="#06919A"/>
</svg>
