<svg width="33" height="24" viewBox="0 0 33 24" fill="none" xmlns="http://www.w3.org/2000/svg">
<path d="M28.4375 0H0V20H28.4375V0ZM26.25 18H2.1875V2H26.25V18Z" fill="#06919A"/>
<path d="M30.625 5V22H5.46875V24H32.8125V5H30.625Z" fill="#06919A"/>
<path d="M14.2188 14.9037C16.9326 14.9037 19.1406 12.7077 19.1406 10.0084C19.1406 7.30906 16.9326 5.113 14.2188 5.113C11.5049 5.113 9.29688 7.309 9.29688 10.0084C9.29688 12.7078 11.5049 14.9037 14.2188 14.9037ZM14.2188 7.113C15.7265 7.113 16.9531 8.41188 16.9531 10.0084C16.9531 11.6049 15.7265 12.9037 14.2188 12.9037C12.711 12.9037 11.4844 11.6049 11.4844 10.0084C11.4844 8.41188 12.711 7.113 14.2188 7.113ZM4.375 4.5H6.5625V15.5H4.375V4.5ZM21.875 4.5H24.0625V15.5H21.875V4.5Z" fill="#06919A"/>
</svg>
