<svg width="20" height="20" viewBox="0 0 20 20" fill="none" xmlns="http://www.w3.org/2000/svg">
<path d="M10.5786 4.44186H9.42507C9.31955 4.44186 9.23322 4.52558 9.23322 4.62791V11.0302C9.23322 11.0907 9.262 11.1465 9.31236 11.1814L13.2764 13.9884C13.3627 14.0488 13.4827 14.0326 13.545 13.9488L14.2309 13.0419C14.2956 12.9558 14.2764 12.8395 14.1901 12.7814L10.7704 10.3837V4.62791C10.7704 4.52558 10.6841 4.44186 10.5786 4.44186ZM15.8496 6.1907L19.6098 7.0814C19.7297 7.1093 19.8472 7.02093 19.8472 6.90233L19.8664 3.14651C19.8664 2.9907 19.6817 2.90233 19.557 3L15.7776 5.86279C15.7491 5.88422 15.7273 5.91303 15.7149 5.94591C15.7025 5.9788 15.6999 6.01441 15.7074 6.04867C15.7149 6.08292 15.7322 6.11442 15.7574 6.13955C15.7825 6.16467 15.8145 6.1824 15.8496 6.1907ZM19.8712 13.193L18.5115 12.7395C18.4641 12.7238 18.4122 12.7266 18.3669 12.7475C18.3216 12.7684 18.2866 12.8056 18.2693 12.8512C18.2237 12.9698 18.1757 13.086 18.1254 13.2023C17.6985 14.1814 17.087 15.0628 16.3052 15.8186C15.5321 16.5707 14.6159 17.1701 13.6074 17.5837C12.5626 18.0121 11.4395 18.232 10.3052 18.2302C9.15888 18.2302 8.04856 18.014 7.00299 17.5837C5.99444 17.1701 5.07822 16.5707 4.30512 15.8186C3.52574 15.0628 2.91422 14.1814 2.48496 13.2023C2.04567 12.1886 1.8206 11.0996 1.82309 10C1.82309 8.88837 2.04611 7.8093 2.48976 6.79535C2.91662 5.81628 3.52814 4.93489 4.30992 4.17907C5.08302 3.42702 5.99924 2.82758 7.00778 2.41396C8.04856 1.98372 9.16127 1.76744 10.3076 1.76744C11.4539 1.76744 12.5642 1.98372 13.6098 2.41396C14.6183 2.82758 15.5345 3.42702 16.3076 4.17907C16.5522 4.41861 16.7824 4.66744 16.9935 4.93023L18.4275 3.84186C16.5402 1.50233 13.6026 -0.00232289 10.3028 2.69195e-06C4.55692 0.00232827 -0.0570218 4.52791 0.000532647 10.1023C0.0580871 15.5791 4.65045 20 10.3076 20C14.756 20 18.545 17.2651 19.9887 13.4349C20.0247 13.3372 19.9719 13.2279 19.8712 13.193Z" fill="#06919A"/>
</svg>
