<svg width="20" height="20" viewBox="0 0 20 20" fill="none" xmlns="http://www.w3.org/2000/svg">
<path d="M16.7622 17.3656C15.3323 18.6787 13.551 19.5472 11.6356 19.8651C9.72022 20.1829 7.75371 19.9364 5.97616 19.1555C4.19861 18.3747 2.68694 17.0933 1.62569 15.4679C0.564452 13.8425 -0.000434776 11.9433 2.51076e-07 10.0023H1.66639C1.66627 11.68 2.17294 13.3187 3.12005 14.7037C4.06716 16.0887 5.41057 17.1556 6.97435 17.7645C8.53814 18.3734 10.2494 18.496 11.8841 18.1163C13.5187 17.7366 15.0006 16.8722 16.1356 15.6364H13.7144C13.4934 15.6364 13.2815 15.5486 13.1252 15.3924C12.969 15.2362 12.8812 15.0244 12.8812 14.8034C12.8812 14.5825 12.969 14.3707 13.1252 14.2145C13.2815 14.0583 13.4934 13.9705 13.7144 13.9705H17.5954C17.8164 13.9705 18.0283 14.0583 18.1846 14.2145C18.3408 14.3707 18.4286 14.5825 18.4286 14.8034V18.68C18.4286 18.9009 18.3408 19.1128 18.1846 19.269C18.0283 19.4252 17.8164 19.513 17.5954 19.513C17.3744 19.513 17.1625 19.4252 17.0062 19.269C16.85 19.1128 16.7622 18.9009 16.7622 18.68V17.364V17.3656ZM3.86102 4.36986H6.28229C6.50326 4.36986 6.71519 4.45762 6.87144 4.61382C7.0277 4.77003 7.11548 4.9819 7.11548 5.20281C7.11548 5.42373 7.0277 5.63559 6.87144 5.7918C6.71519 5.94801 6.50326 6.03577 6.28229 6.03577H2.3996C2.17862 6.03577 1.9667 5.94801 1.81044 5.7918C1.65419 5.63559 1.56641 5.42373 1.56641 5.20281V1.32291C1.56641 1.102 1.65419 0.890131 1.81044 0.733922C1.9667 0.577712 2.17862 0.489955 2.3996 0.489955C2.62058 0.489955 2.8325 0.577712 2.98876 0.733922C3.14501 0.890131 3.23279 1.102 3.23279 1.32291V2.63898C4.66248 1.32425 6.4443 0.454344 8.36051 0.135579C10.2767 -0.183186 12.2443 0.0629928 14.0228 0.844031C15.8014 1.62507 17.3138 2.90714 18.3753 4.53356C19.4368 6.15998 20.0013 8.0603 20 10.0023H18.3336C18.3338 8.32434 17.827 6.68546 16.8797 5.30031C15.9323 3.91516 14.5886 2.84833 13.0246 2.23955C11.4605 1.63078 9.74896 1.50844 8.11416 1.88856C6.47935 2.26868 4.9975 3.13354 3.86269 4.36986H3.86102Z" fill="#06919A"/>
</svg>
